<svg width="100" height="60" viewBox="0 0 100 60" fill="none" xmlns="http://www.w3.org/2000/svg">
<path d="M69 32C69 42.4934 60.4934 51 50 51C39.5066 51 31 42.4934 31 32C31 21.5066 39.5066 13 50 13C60.4934 13 69 21.5066 69 32Z" fill="#B0907A"/>
<path d="M95.4304 28.7283C95.6376 28.7102 95.8054 28.7919 95.9337 28.9734C96.0779 29.1535 96.1647 29.4109 96.194 29.7456C96.2442 30.3194 96.1519 30.8254 95.9172 31.2635C95.5309 31.9879 94.9878 32.5735 94.2881 33.0202C93.6043 33.4655 92.7603 33.732 91.7562 33.8199C90.226 33.9538 88.9988 33.6034 88.0745 32.7688C87.1489 31.9182 86.6177 30.7119 86.4811 29.1499C86.3849 28.0501 86.5267 27.0098 86.9067 26.0289C87.2852 25.0321 87.8566 24.2192 88.6207 23.5902C89.4007 22.9599 90.3087 22.5994 91.3448 22.5087C92.2692 22.4278 93.0348 22.6419 93.6415 23.151C94.2468 23.6441 94.5905 24.3609 94.6728 25.3013C94.769 26.4011 94.4535 27.3843 93.7263 28.251C93.0136 29.1003 91.7291 29.8391 89.8728 30.4673C90.3195 31.167 90.9971 31.4771 91.9056 31.3977C92.5591 31.3405 93.0798 31.1423 93.4678 30.8032C93.8716 30.4627 94.3211 29.9095 94.8162 29.1434C94.9866 28.8876 95.1913 28.7492 95.4304 28.7283ZM91.1433 24.8873C90.5536 24.9389 90.0815 25.3255 89.727 26.0472C89.3885 26.7674 89.2618 27.6137 89.3468 28.586L89.351 28.6338C90.2719 28.3284 90.9838 27.9288 91.4867 27.4351C91.9896 26.9414 92.2152 26.3997 92.1636 25.8099C92.1371 25.5071 92.0285 25.2756 91.8379 25.1157C91.6617 24.9383 91.4302 24.8622 91.1433 24.8873Z" fill="#403F3D"/>
<path d="M83.0495 34.5817C81.4875 34.7183 80.2298 34.3867 79.2765 33.5867C78.3377 32.7694 77.8048 31.6356 77.6779 30.1851C77.565 28.894 77.721 27.74 78.146 26.7231C78.571 25.7062 79.1669 24.8992 79.9338 24.3021C80.7006 23.705 81.5304 23.3674 82.423 23.2893C83.2996 23.2126 84 23.4163 84.5242 23.9005C85.063 24.3673 85.3679 25.0072 85.439 25.8201C85.4976 26.4895 85.3957 27.0686 85.1333 27.5573C84.8868 28.0447 84.5245 28.3092 84.0463 28.3511C83.7435 28.3776 83.4901 28.3275 83.2863 28.2007C83.0984 28.0726 82.9933 27.8811 82.971 27.626C82.9613 27.5145 82.966 27.3856 82.9854 27.2393C83.0047 27.0931 83.0195 26.9874 83.0299 26.9222C83.0887 26.6762 83.109 26.4495 83.0909 26.2423C83.0727 26.0351 83.003 25.8806 82.8817 25.7788C82.7763 25.6756 82.628 25.6323 82.4367 25.6491C82.0701 25.6812 81.742 25.8785 81.4525 26.2411C81.1616 26.5878 80.945 27.0484 80.8025 27.623C80.66 28.1976 80.6181 28.8196 80.6767 29.4891C80.8384 31.338 81.7242 32.1921 83.3341 32.0512C83.9876 31.9941 84.6701 31.7175 85.3816 31.2216C86.1076 30.7084 86.7989 29.9814 87.4554 29.0406C87.6271 28.8007 87.8325 28.6703 88.0716 28.6494C88.2788 28.6313 88.4466 28.7129 88.5749 28.8944C88.7191 29.0746 88.8059 29.332 88.8352 29.6667C88.8882 30.2724 88.78 30.7797 88.5106 31.1888C87.8424 32.1788 87.0045 32.9748 85.9972 33.5769C85.0044 34.1617 84.0218 34.4966 83.0495 34.5817Z" fill="#403F3D"/>
<path d="M69.3009 35.7846C68.6952 35.8376 68.237 35.5565 67.9262 34.9412C67.6313 34.3246 67.4225 33.3149 67.2998 31.9123C67.1185 29.8402 67.2412 27.8459 67.6678 25.9295C67.7708 25.4547 67.9726 25.0997 68.2733 24.8646C68.5885 24.6122 69.0409 24.4602 69.6307 24.4086C69.9495 24.3807 70.1761 24.401 70.3106 24.4696C70.4451 24.5381 70.5221 24.6839 70.5416 24.9071C70.5639 25.1621 70.4946 25.7464 70.3336 26.6599C70.23 27.3114 70.1513 27.8804 70.0975 28.367C70.0437 28.8535 70.0156 29.4502 70.0132 30.1571C70.4192 28.7404 70.9114 27.573 71.4896 26.6551C72.0678 25.7372 72.6516 25.0678 73.2412 24.6468C73.8467 24.2244 74.4124 23.9902 74.9384 23.9442C75.9745 23.8536 76.5378 24.3263 76.6284 25.3623C76.6466 25.5695 76.6188 26.0779 76.545 26.8874C76.4733 27.5361 76.4444 27.9402 76.4584 28.0996C76.5072 28.6574 76.7308 28.9189 77.1293 28.8841C77.5756 28.845 78.1187 28.4442 78.7587 27.6815C78.9478 27.4562 79.1539 27.3337 79.377 27.3142C79.5842 27.2961 79.752 27.3778 79.8803 27.5593C80.0231 27.7234 80.1078 27.957 80.1343 28.2598C80.1859 28.8495 80.067 29.3257 79.7775 29.6883C79.3716 30.1896 78.8805 30.6341 78.3041 31.0218C77.7422 31.3922 77.1266 31.6067 76.4571 31.6652C75.6124 31.7392 74.948 31.5805 74.464 31.1891C73.996 30.7964 73.73 30.2335 73.6658 29.5003C73.6449 29.2612 73.6479 29.02 73.6748 28.7767C73.6788 28.4552 73.6759 28.2386 73.6661 28.127C73.6438 27.872 73.545 27.7522 73.3697 27.7675C73.1306 27.7884 72.8355 28.0873 72.4844 28.6641C72.1479 29.2235 71.8267 29.9583 71.5209 30.8684C71.2151 31.7786 70.9851 32.7302 70.8311 33.7234C70.7213 34.4879 70.5587 35.0161 70.3433 35.308C70.1425 35.5825 69.795 35.7414 69.3009 35.7846Z" fill="#403F3D"/>
<path d="M58.9981 36.6858C58.2808 36.7486 57.6625 36.4734 57.1431 35.8603C56.6382 35.2299 56.3426 34.4206 56.2561 33.4324C56.1515 32.237 56.1357 31.1382 56.2086 30.136C56.2802 29.1179 56.4504 28.0349 56.7194 26.8871C56.837 26.395 57.0301 26.0328 57.2989 25.8005C57.5677 25.5682 58.0129 25.4248 58.6345 25.3704C58.9852 25.3398 59.2292 25.3746 59.3664 25.475C59.5196 25.5741 59.606 25.7352 59.6255 25.9583C59.6367 26.0858 59.5867 26.5238 59.4755 27.2724C59.3677 27.8761 59.2869 28.4212 59.2331 28.9077C59.0607 30.6092 58.999 31.7389 59.0478 32.2968C59.0771 32.6315 59.1378 32.8671 59.2301 33.0036C59.3209 33.1241 59.454 33.1767 59.6293 33.1614C59.8684 33.1405 60.1424 32.8756 60.4512 32.3667C60.776 31.8565 61.0951 31.0978 61.4085 30.0906C61.7378 29.0821 62.0317 27.8518 62.2902 26.3997C62.3758 25.9104 62.5371 25.551 62.774 25.3215C63.0269 25.0906 63.4163 24.9521 63.9423 24.9061C64.3089 24.874 64.5681 24.8995 64.7199 24.9826C64.8703 25.0497 64.956 25.2029 64.9769 25.4419C65.0118 25.8404 64.908 26.9497 64.6657 28.7697C64.3979 30.849 64.285 32.1277 64.3268 32.6059C64.3533 32.9087 64.438 33.1422 64.5808 33.3064C64.7223 33.4546 64.8966 33.5197 65.1038 33.5015C65.4226 33.4737 65.7804 33.2496 66.1773 32.8294C66.5888 32.3919 67.1227 31.7027 67.7792 30.7619C67.951 30.5221 68.1564 30.3917 68.3955 30.3707C68.6027 30.3526 68.7704 30.4343 68.8987 30.6158C69.043 30.7959 69.1298 31.0533 69.159 31.3881C69.2148 32.0256 69.1066 32.533 68.8345 32.9101C68.223 33.8149 67.5425 34.5731 66.7929 35.1847C66.0593 35.795 65.1905 36.1441 64.1863 36.2319C63.4212 36.2988 62.8296 36.0535 62.4114 35.4958C62.0091 34.9367 61.7613 34.1232 61.6679 33.0553C61.4917 34.1629 61.1585 35.0352 60.6681 35.6724C60.1764 36.2936 59.6197 36.6314 58.9981 36.6858Z" fill="#403F3D"/>
<path d="M57.3125 29.3166C57.5197 29.2985 57.6882 29.3881 57.8179 29.5856C57.9476 29.783 58.0264 30.0411 58.0543 30.3599C58.1212 31.125 57.9298 31.5995 57.4801 31.7834C56.5531 32.2017 55.5178 32.4851 54.3744 32.6333C54.1887 33.9987 53.6851 35.1268 52.8636 36.0178C52.0408 36.8929 51.0635 37.3799 49.9318 37.4789C48.9755 37.5626 48.1344 37.4033 47.4086 37.001C46.6987 36.5973 46.1349 36.0283 45.7173 35.2939C45.2998 34.5595 45.0519 33.746 44.9738 32.8534C44.8678 31.6421 45.0048 30.5459 45.3848 29.5651C45.7633 28.5683 46.3361 27.7714 47.1029 27.1743C47.8684 26.5612 48.7453 26.2114 49.7335 26.125C50.9449 26.019 51.9541 26.3563 52.7612 27.137C53.5829 27.9002 54.1111 28.89 54.346 30.1061C55.091 29.9928 55.9696 29.7553 56.982 29.3937C57.1067 29.3506 57.2169 29.3249 57.3125 29.3166ZM49.9014 34.9279C50.4114 34.8832 50.8316 34.6377 51.162 34.1912C51.5082 33.7433 51.711 33.1233 51.7702 32.3311C51.2468 32.0396 50.8259 31.6348 50.5075 31.1165C50.2051 30.5969 50.0273 30.0343 49.9743 29.4286C49.952 29.1735 49.9536 28.9164 49.9791 28.6572L49.8596 28.6677C49.222 28.7235 48.7153 29.081 48.3393 29.7403C47.9779 30.3822 47.846 31.261 47.9436 32.3768C48.0203 33.2534 48.2462 33.9082 48.6214 34.3412C49.0125 34.7727 49.4391 34.9683 49.9014 34.9279Z" fill="#403F3D"/>
<path d="M40.0623 38.8725C39.2334 38.945 38.5791 38.8095 38.0994 38.466C37.6355 38.1211 37.3827 37.7096 37.3409 37.2314C37.3046 36.817 37.4247 36.4451 37.701 36.1158C37.9774 35.7864 38.4104 35.596 39.0001 35.5444C39.2074 35.5262 39.4485 35.5292 39.7237 35.5533C40.0134 35.5601 40.2306 35.5652 40.3755 35.5686C40.3233 35.1556 40.1935 34.7734 39.9861 34.4222C39.7946 34.0695 39.5567 33.737 39.2724 33.4246C38.9867 33.0962 38.7211 32.8143 38.4757 32.5788C38.0638 33.5624 37.6381 34.3867 37.1983 35.0515C36.7745 35.715 36.3002 36.3507 35.7752 36.9588C35.5133 37.2708 35.2231 37.4408 34.9043 37.4687C34.6492 37.491 34.4344 37.4214 34.2596 37.2601C34.0835 37.0827 33.9836 36.8586 33.9599 36.5876C33.932 36.2688 34.0178 35.9642 34.2172 35.6737L34.4946 35.264C35.2764 34.1034 35.8598 33.153 36.2447 32.4126C36.4752 31.9267 36.7403 31.2851 37.04 30.488C37.3383 29.6749 37.6265 28.8386 37.9046 27.9791C38.1461 27.2512 38.745 26.8455 39.7014 26.7618C40.1477 26.7228 40.462 26.7354 40.6443 26.7998C40.8266 26.8641 40.9254 26.984 40.9407 27.1593C40.9491 27.255 40.9305 27.4092 40.8848 27.622C40.8392 27.8347 40.7697 28.0496 40.6762 28.2666C40.4395 28.8655 40.3386 29.3642 40.3735 29.7627C40.3944 30.0018 40.4971 30.2578 40.6816 30.5307C40.882 30.8023 41.1764 31.1379 41.5647 31.5376C42.1333 32.1624 42.5661 32.7028 42.8629 33.1586C43.1743 33.5971 43.3544 34.0953 43.4032 34.6532C43.4172 34.8126 43.4208 35.0371 43.414 35.3268C44.1685 34.9557 45.0146 34.0706 45.9522 32.6715C46.124 32.4316 46.3294 32.3012 46.5685 32.2803C46.7757 32.2622 46.9434 32.3439 47.0717 32.5254C47.216 32.7055 47.3028 32.9629 47.332 33.2976C47.385 33.9033 47.2768 34.4107 47.0075 34.8197C46.297 35.8777 45.5912 36.622 44.89 37.0528C44.2034 37.4662 43.3276 37.7355 42.2625 37.8608C41.6723 38.4586 40.9389 38.7958 40.0623 38.8725Z" fill="#403F3D"/>
<path d="M36.3681 33.1727C36.5753 33.1545 36.743 33.2362 36.8714 33.4177C37.0156 33.5978 37.1024 33.8553 37.1317 34.19C37.1874 34.8276 37.0792 35.3349 36.8071 35.7121C36.2801 36.4809 35.5011 37.2156 34.4703 37.9161C33.4553 38.6152 32.3342 39.0185 31.1069 39.1259C29.4333 39.2723 28.0945 38.9317 27.0906 38.104C26.0866 37.2764 25.5156 36.0736 25.3776 34.4956C25.2813 33.3958 25.4232 32.3555 25.8032 31.3746C26.1817 30.3778 26.7531 29.5649 27.5171 28.936C28.2972 28.3056 29.2052 27.9451 30.2413 27.8544C31.1657 27.7735 31.9313 27.9876 32.538 28.4967C33.1432 28.9898 33.487 29.7066 33.5693 30.647C33.6655 31.7468 33.35 32.73 32.6228 33.5967C31.9101 34.446 30.6336 35.1841 28.7932 35.8109C29.2558 36.5092 30.045 36.8096 31.1607 36.712C31.878 36.6492 32.6693 36.3311 33.5346 35.7575C34.4144 35.1665 35.1535 34.4353 35.7518 33.5639C35.9236 33.324 36.129 33.1936 36.3681 33.1727ZM30.0398 30.233C29.45 30.2846 28.9779 30.6712 28.6235 31.3929C28.285 32.1131 28.1583 32.9594 28.2433 33.9317L28.2475 33.9795C29.1684 33.6741 29.8803 33.2745 30.3832 32.7808C30.886 32.2871 31.1117 31.7454 31.0601 31.1556C31.0336 30.8528 30.925 30.6214 30.7343 30.4614C30.5582 30.284 30.3267 30.2079 30.0398 30.233Z" fill="#403F3D"/>
<path d="M27.4426 33.9538C27.6498 33.9356 27.8176 34.0173 27.9459 34.1988C28.0901 34.3789 28.1769 34.6364 28.2062 34.9711C28.2605 35.5927 28.1523 36.1001 27.8816 36.4932C27.1974 37.4846 26.4871 38.2695 25.7507 38.8478C25.0129 39.4103 24.1101 39.7382 23.0421 39.8317C22.0061 39.9223 21.0971 39.7208 20.3151 39.227C19.549 38.7319 18.7799 37.8355 18.0079 36.5379C17.3871 35.5 16.9029 34.7393 16.5555 34.2558C16.2066 33.7563 15.871 33.4082 15.5486 33.2116C15.2422 33.0135 14.8717 32.9094 14.4372 32.8992C14.4027 33.2395 14.3115 34.3076 14.1634 36.1033C14.1056 36.9114 14.0684 37.4045 14.0519 37.5826C13.9776 38.5689 13.7243 39.3459 13.2922 39.9137C12.8586 40.4656 12.1557 40.7841 11.1834 40.8692C10.1155 40.9626 9.13994 40.7347 8.25672 40.1856C7.38804 39.6192 6.68175 38.7976 6.13784 37.7209C5.59254 36.6283 5.25713 35.3647 5.13163 33.9302C4.89736 31.2524 5.15739 28.9008 5.91173 26.8754C6.68201 24.8485 7.85933 23.2518 9.44369 22.0853C11.0426 20.9014 12.9418 20.2133 15.1414 20.0209C16.6716 19.887 17.9749 20.0058 19.0514 20.3774C20.1279 20.749 20.9487 21.3197 21.514 22.0893C22.0951 22.8576 22.4304 23.7518 22.5196 24.7719C22.5977 25.6645 22.4592 26.56 22.1042 27.4583C21.7636 28.3393 21.1996 29.1436 20.412 29.871C19.6244 30.5984 18.6389 31.1745 17.4554 31.5992C18.2386 31.7395 18.8576 32.0226 19.3125 32.4486C19.7673 32.8746 20.241 33.5158 20.7335 34.3721C21.2635 35.2894 21.7632 35.9524 22.2326 36.361C22.7179 36.7683 23.2475 36.9468 23.8213 36.8966C24.3313 36.852 24.8028 36.6421 25.2358 36.2669C25.6673 35.8758 26.1975 35.2351 26.8263 34.345C26.9981 34.1051 27.2035 33.9747 27.4426 33.9538ZM11.1357 33.164C10.5938 33.2114 10.208 33.1167 9.97852 32.8798C9.76494 32.6415 9.64421 32.3629 9.61632 32.0442C9.58285 31.6616 9.6759 31.3483 9.89546 31.1042C10.131 30.8588 10.4081 30.7221 10.7269 30.6942L11.3246 30.6419C11.443 29.0576 11.5642 27.6898 11.6884 26.5386C11.8049 25.4844 12.4291 24.9079 13.5607 24.8088C14.4693 24.7294 14.9591 25.0961 15.0302 25.909C15.0455 26.0843 15.0494 26.2205 15.0419 26.3175L14.6718 30.3491C15.5283 30.226 16.2912 29.9504 16.9605 29.5225C17.6457 29.0931 18.1669 28.5336 18.5241 27.8438C18.8973 27.1526 19.0476 26.3927 18.9751 25.5638C18.8873 24.5597 18.4756 23.8007 17.74 23.2868C17.0044 22.773 15.9751 22.5739 14.6522 22.6897C13.0901 22.8263 11.7535 23.3367 10.6424 24.221C9.54576 25.0878 8.73764 26.3149 8.21801 27.9023C7.69698 29.4737 7.53199 31.3512 7.72303 33.5348C7.81228 34.5549 7.99258 35.4225 8.26394 36.1376C8.53529 36.8527 8.83843 37.3803 9.17334 37.7204C9.50826 38.0605 9.8112 38.2187 10.0822 38.195C10.2894 38.1768 10.4477 38.0586 10.5571 37.8402C10.6824 37.6205 10.7647 37.276 10.8039 36.8068L11.1357 33.164Z" fill="#403F3D"/>
</svg>
